<?xml version="1.0" encoding="UTF-8" ?>
<!DOCTYPE svg PUBLIC "-//W3C//DTD SVG 1.1//EN" "http://www.w3.org/Graphics/SVG/1.1/DTD/svg11.dtd">
<svg width="225pt" height="250.5pt" viewBox="0 0 964 1073" version="1.1" xmlns="http://www.w3.org/2000/svg">
<g id="#fefefeff">
</g>
<g id="#000000ff">
<path fill="#000000" opacity="1.00" d=" M 119.18 11.29 C 149.68 2.32 183.52 4.95 212.19 18.77 C 220.75 22.85 228.75 27.97 236.31 33.70 C 249.97 44.43 261.35 57.93 269.88 73.05 C 280.90 92.77 286.60 115.43 286.32 138.02 C 286.08 166.05 276.35 193.79 259.27 215.99 C 244.36 235.35 223.92 250.43 200.96 258.82 C 161.38 273.66 114.48 267.72 80.35 242.57 C 80.23 242.92 79.98 243.60 79.85 243.94 C 80.44 242.12 78.50 241.57 77.51 240.62 C 58.71 226.71 44.12 207.40 35.15 185.85 C 25.85 163.06 23.12 137.61 27.53 113.39 C 31.91 88.41 43.98 64.89 61.44 46.54 C 77.13 29.97 97.26 17.66 119.18 11.29 Z" />
<path fill="#000000" opacity="1.00" d=" M 360.88 22.97 C 360.82 20.27 361.03 17.59 361.27 14.91 C 371.47 15.40 381.69 14.35 391.90 15.15 C 399.60 14.86 407.29 15.04 415.01 15.16 C 418.67 15.16 422.33 15.16 425.99 15.16 C 428.66 15.16 431.33 15.16 434.00 15.16 C 443.00 14.97 451.98 14.97 460.99 15.16 C 467.32 15.32 473.64 14.69 479.97 14.87 C 491.62 15.57 503.30 14.31 514.96 15.17 C 524.68 14.54 534.39 15.47 544.12 15.08 C 548.76 14.74 553.40 15.43 558.04 15.08 C 564.02 14.52 570.00 15.40 575.99 15.17 C 587.33 14.89 598.69 14.72 610.04 14.98 C 616.37 15.53 622.70 14.74 629.04 14.87 C 635.35 14.73 641.66 15.55 647.97 14.94 C 649.33 15.02 651.08 14.41 652.09 15.68 C 652.12 16.50 652.18 18.14 652.21 18.96 C 652.14 21.97 652.15 24.98 652.16 27.99 C 652.33 37.04 651.78 46.06 652.16 55.09 C 651.30 68.73 652.69 82.39 651.97 96.04 C 651.62 100.69 652.34 105.34 652.18 110.00 C 651.51 126.71 652.23 143.41 652.12 160.12 C 651.27 172.73 652.59 185.37 651.86 197.98 C 652.73 211.31 651.42 224.65 652.17 237.97 C 651.51 250.35 652.03 262.74 652.15 275.12 C 651.26 286.41 652.65 297.72 651.87 309.01 C 651.56 317.34 652.55 325.66 651.89 333.97 C 651.63 340.65 652.30 347.32 652.18 354.00 C 651.81 360.33 652.08 366.66 652.18 373.00 C 651.92 382.63 651.58 392.28 652.15 401.90 C 651.64 417.93 651.86 433.97 652.16 450.00 C 651.32 462.87 652.96 475.79 651.76 488.64 C 705.84 488.86 759.93 488.67 814.02 488.74 C 860.13 488.69 906.25 488.83 952.36 488.66 C 952.31 586.56 952.38 684.45 952.32 782.35 C 755.23 782.35 558.14 782.26 361.05 782.38 C 361.31 751.57 361.09 720.76 360.90 689.96 C 361.64 676.69 360.45 663.41 361.14 650.13 C 360.98 630.07 360.64 610.00 361.15 589.94 C 360.83 573.95 360.91 557.95 360.90 541.95 C 361.51 525.32 360.62 508.68 360.91 492.04 C 360.70 481.69 361.30 471.36 361.11 461.02 C 360.49 447.66 361.27 434.30 361.14 420.94 C 360.70 408.29 360.98 395.64 360.92 382.99 C 361.70 365.71 360.47 348.41 361.14 331.13 C 361.31 317.75 360.79 304.38 360.90 291.00 C 361.37 273.64 361.05 256.27 361.14 238.90 C 360.36 217.28 361.53 195.64 360.90 174.02 C 361.10 155.69 361.21 137.35 361.14 119.00 C 360.64 87.00 361.04 54.98 360.88 22.97 M 489.02 309.26 C 486.65 309.44 484.27 309.65 481.98 310.33 C 480.19 310.47 478.39 310.56 476.61 310.64 L 476.52 311.46 C 474.09 311.51 471.67 311.79 469.31 312.33 C 468.29 312.76 467.27 313.19 466.25 313.63 C 464.74 313.69 463.23 313.77 461.73 313.85 C 461.70 314.32 461.64 315.26 461.61 315.73 C 461.24 315.70 460.48 315.64 460.11 315.60 C 458.90 316.01 457.70 316.40 456.49 316.77 L 456.46 317.59 C 455.73 317.53 454.29 317.42 453.57 317.37 L 453.45 318.58 C 453.08 318.58 452.35 318.57 451.98 318.56 C 449.04 320.14 445.99 321.48 442.96 322.87 C 441.22 323.93 439.44 324.92 437.64 325.86 L 437.37 326.10 C 434.50 327.58 431.79 329.32 428.99 330.92 C 422.88 335.62 416.49 340.05 411.15 345.64 C 410.90 345.65 410.41 345.67 410.17 345.68 C 409.37 346.99 408.57 348.34 407.48 349.44 C 401.69 355.07 396.60 361.42 392.11 368.11 C 390.96 370.33 389.53 372.41 387.77 374.19 C 387.69 374.69 387.53 375.68 387.45 376.18 C 386.24 378.17 384.97 380.14 383.62 382.05 C 383.65 382.42 383.72 383.18 383.75 383.56 L 382.37 383.59 C 382.46 384.06 382.63 385.02 382.71 385.49 L 381.78 385.63 C 381.43 387.01 381.04 388.39 380.65 389.78 L 379.84 389.64 C 379.45 391.32 379.03 393.00 378.59 394.68 L 377.51 394.63 C 377.57 395.38 377.67 396.86 377.72 397.60 L 376.56 397.58 C 376.55 398.89 376.53 400.20 376.52 401.52 C 376.10 401.55 375.26 401.60 374.84 401.63 C 374.57 404.95 373.84 408.21 373.32 411.50 L 372.77 411.58 C 372.54 413.11 372.32 414.66 371.93 416.17 C 371.67 417.77 371.48 419.39 371.28 421.01 C 370.25 426.59 369.44 432.27 369.54 437.97 C 369.54 547.98 369.55 658.00 369.53 768.01 C 369.24 770.20 370.22 772.96 372.95 772.38 C 478.96 772.37 584.97 772.38 690.97 772.37 C 695.19 772.37 699.43 772.61 703.61 771.84 C 708.93 770.97 714.46 772.16 719.68 770.51 C 721.91 770.36 724.15 770.27 726.40 770.21 L 726.38 768.32 C 727.11 768.66 728.56 769.35 729.29 769.69 L 729.28 768.34 C 730.94 768.33 732.60 768.32 734.27 768.33 L 734.33 767.30 C 736.00 767.29 737.68 767.27 739.38 767.27 C 739.34 766.87 739.28 766.06 739.25 765.66 C 741.12 765.04 743.00 764.41 744.88 763.76 C 750.76 761.65 756.41 758.98 761.96 756.11 C 762.91 755.67 763.87 755.23 764.84 754.80 C 766.89 753.58 768.90 752.31 770.92 751.04 C 774.32 748.75 777.54 746.21 781.01 744.02 C 782.70 742.34 784.44 740.68 786.34 739.22 C 790.74 735.87 794.15 731.43 798.49 728.00 C 798.54 727.42 798.63 726.26 798.68 725.68 C 799.39 725.61 800.80 725.47 801.51 725.40 C 801.46 724.88 801.37 723.85 801.32 723.34 C 801.84 723.38 802.89 723.47 803.42 723.52 C 803.42 722.82 803.41 721.43 803.41 720.74 C 804.43 720.23 805.45 719.74 806.48 719.24 C 806.52 718.72 806.61 717.67 806.65 717.14 C 810.06 713.42 812.79 709.03 814.93 704.47 C 815.28 704.47 815.98 704.48 816.33 704.48 C 816.38 703.10 816.45 701.74 816.52 700.38 C 816.94 700.41 817.77 700.48 818.18 700.51 C 818.66 698.82 819.20 697.15 819.71 695.47 C 820.20 695.43 821.19 695.34 821.68 695.29 C 821.34 694.77 820.67 693.72 820.34 693.20 C 822.24 692.54 822.43 690.65 822.81 688.98 C 823.56 687.50 824.24 686.00 824.79 684.45 L 825.45 684.41 C 825.47 683.79 825.52 682.54 825.55 681.91 C 826.48 679.17 827.27 676.38 827.74 673.52 L 828.36 673.56 C 828.86 670.90 829.41 668.25 829.74 665.57 L 830.55 665.50 C 830.52 663.83 830.53 662.18 830.52 660.52 L 831.49 660.55 C 831.16 654.63 832.76 648.86 832.60 642.96 C 832.61 633.67 832.78 624.38 832.25 615.11 C 831.86 613.76 831.51 612.40 831.18 611.05 C 830.34 607.14 830.65 603.07 829.46 599.23 C 829.37 598.02 829.30 596.81 829.24 595.61 C 828.78 595.63 827.86 595.66 827.40 595.67 C 827.45 594.88 827.56 593.29 827.62 592.50 L 826.41 592.48 C 826.47 591.74 826.59 590.26 826.65 589.52 L 825.47 589.42 C 825.50 588.68 825.58 587.21 825.62 586.47 L 824.35 586.54 C 824.41 585.80 824.53 584.33 824.60 583.59 L 823.28 583.48 C 823.39 582.99 823.61 582.02 823.72 581.53 L 822.69 581.48 C 822.41 580.37 822.12 579.26 821.83 578.17 C 819.61 574.18 818.08 569.83 815.47 566.06 C 815.52 565.69 815.62 564.93 815.66 564.55 L 814.33 564.51 C 814.37 564.12 814.44 563.33 814.48 562.94 C 810.38 557.65 806.33 552.26 802.93 546.51 C 802.69 546.52 802.22 546.53 801.99 546.54 C 799.68 543.06 796.26 540.56 793.80 537.21 C 789.96 533.74 786.38 530.00 782.25 526.87 C 778.44 523.48 773.85 521.19 769.86 518.07 C 768.26 516.81 766.49 515.84 764.60 515.12 L 764.28 514.96 C 762.40 514.01 760.65 512.85 759.01 511.55 C 758.62 511.58 757.86 511.65 757.47 511.69 L 757.42 510.41 C 756.69 510.46 755.22 510.55 754.49 510.60 L 754.53 509.23 C 754.04 509.36 753.05 509.61 752.55 509.74 L 752.37 508.38 C 751.90 508.44 750.97 508.56 750.50 508.62 L 750.44 507.37 C 749.70 507.42 748.24 507.53 747.51 507.58 L 747.50 506.20 C 747.02 506.34 746.05 506.61 745.56 506.75 L 745.43 505.80 C 743.89 505.52 742.37 505.27 740.89 504.79 C 740.66 504.70 740.20 504.53 739.97 504.44 C 738.92 504.00 737.88 503.56 736.85 503.13 C 735.38 502.81 733.92 502.55 732.46 502.31 L 732.52 501.67 C 726.34 501.13 720.30 499.57 714.15 498.76 C 706.23 496.99 698.08 497.71 690.04 497.56 C 674.56 497.47 659.07 497.74 643.60 497.44 C 643.46 478.28 643.60 459.12 643.54 439.97 C 643.74 432.65 642.55 425.41 641.71 418.17 C 641.42 416.21 641.02 414.26 640.55 412.34 C 640.42 410.76 640.31 409.17 640.21 407.60 C 639.86 407.60 639.15 407.60 638.80 407.60 C 638.17 404.51 637.26 401.49 636.34 398.49 L 635.43 398.47 C 635.49 397.75 635.61 396.30 635.67 395.57 L 634.36 395.42 C 634.45 394.93 634.64 393.96 634.73 393.47 L 633.49 393.44 C 633.50 392.80 633.52 391.53 633.53 390.89 C 632.93 389.97 632.34 389.04 631.77 388.12 C 631.05 385.95 630.08 383.87 628.91 381.92 C 627.42 379.36 626.86 376.21 624.77 374.04 C 624.15 372.74 623.59 371.43 623.03 370.12 C 618.54 365.76 615.73 360.01 611.47 355.45 C 607.69 351.56 604.28 347.31 600.05 343.90 C 593.83 337.60 586.30 332.91 579.07 327.91 C 576.98 327.00 575.21 325.58 573.82 323.79 C 572.82 323.68 571.82 323.59 570.84 323.50 C 568.67 322.46 566.61 321.20 564.74 319.69 C 564.41 319.74 563.75 319.83 563.42 319.88 L 563.35 318.66 C 562.73 318.62 561.50 318.55 560.89 318.51 C 559.44 318.04 558.00 317.60 556.55 317.22 L 556.47 316.33 C 556.10 316.36 555.36 316.42 554.99 316.45 C 552.59 315.47 550.11 314.70 547.56 314.28 L 547.44 313.51 C 546.85 313.48 545.65 313.42 545.06 313.39 C 542.80 312.69 540.49 312.18 538.19 311.69 L 538.26 310.41 C 537.50 310.67 535.98 311.18 535.22 311.44 C 534.85 311.12 534.11 310.47 533.74 310.15 C 524.00 307.98 513.93 308.64 504.01 308.47 C 499.01 308.66 493.92 308.04 489.02 309.26 Z" />
<path fill="#000000" opacity="1.00" d=" M 9.89 316.45 C 53.59 316.18 97.30 316.41 141.01 316.33 C 194.60 316.37 248.20 316.25 301.79 316.40 C 301.53 471.72 301.79 627.05 301.67 782.38 C 204.41 782.29 107.16 782.33 9.91 782.36 C 9.95 627.06 9.98 471.75 9.89 316.45 Z" />
<path fill="#000000" opacity="1.00" d=" M 699.31 799.62 C 719.16 799.65 739.01 799.71 758.86 799.58 C 758.62 808.07 759.24 816.55 759.05 825.05 C 758.72 830.61 758.85 836.19 758.85 841.78 C 738.99 841.82 719.14 841.72 699.28 841.81 C 699.44 827.75 699.35 813.68 699.31 799.62 Z" />
<path fill="#000000" opacity="1.00" d=" M 11.13 812.30 C 69.37 812.32 127.62 812.35 185.86 812.29 C 185.90 828.09 186.14 843.89 186.13 859.70 C 167.35 859.75 148.57 859.75 129.80 859.70 C 130.30 905.47 129.94 951.25 130.08 997.03 C 130.13 999.75 129.93 1002.47 129.66 1005.18 C 120.79 1004.34 111.89 1005.20 103.02 1005.08 C 91.15 1005.06 79.28 1005.10 67.41 1005.05 C 67.26 956.60 67.38 908.16 67.35 859.71 C 48.53 859.70 29.71 859.82 10.89 859.65 C 11.79 851.45 10.59 843.23 10.91 835.02 C 10.66 827.44 11.44 819.88 11.13 812.30 Z" />
<path fill="#000000" opacity="1.00" d=" M 388.30 859.54 C 403.14 856.51 419.50 857.05 432.87 864.86 C 442.17 869.90 449.24 878.31 453.32 888.00 C 453.86 879.12 453.57 870.19 453.91 861.29 C 472.17 860.81 490.47 861.70 508.70 860.83 C 509.46 875.20 508.90 889.60 509.07 903.98 C 509.00 931.31 509.27 958.64 508.83 985.96 C 509.14 1000.41 507.60 1015.28 501.30 1028.48 C 495.82 1040.44 486.17 1050.49 474.30 1056.22 C 460.87 1062.69 445.90 1065.20 431.11 1065.87 C 416.38 1067.12 401.60 1065.72 386.93 1064.35 C 376.28 1062.84 365.68 1060.84 355.46 1057.45 C 355.54 1043.05 356.28 1028.68 356.59 1014.30 C 366.21 1019.95 376.98 1023.44 387.88 1025.62 C 400.73 1027.72 414.17 1028.49 426.80 1024.78 C 436.52 1021.99 445.51 1015.22 449.24 1005.62 C 452.52 997.80 452.41 989.19 452.52 980.88 C 450.23 983.79 447.78 986.59 445.18 989.25 C 434.41 999.91 419.08 1005.45 404.00 1004.85 C 388.94 1005.20 373.18 1000.51 362.42 989.61 C 346.70 974.30 341.17 951.30 342.07 929.96 C 342.21 913.80 345.83 897.31 354.60 883.56 C 361.84 871.27 374.35 862.43 388.30 859.54 M 421.63 899.74 C 413.00 901.60 407.83 909.91 405.98 918.00 C 403.22 929.51 403.50 942.33 409.08 952.99 C 412.45 959.51 419.59 963.93 426.98 963.47 C 433.36 963.71 439.98 961.16 443.98 956.08 C 449.36 949.31 451.69 940.52 451.75 931.97 C 451.97 922.39 449.44 912.35 443.03 905.02 C 437.53 899.44 429.02 898.52 421.63 899.74 Z" />
<path fill="#000000" opacity="1.00" d=" M 791.41 872.42 C 803.61 860.43 821.79 856.72 838.36 858.17 C 852.94 859.02 867.17 866.47 875.75 878.37 C 878.00 881.34 879.27 884.88 881.20 888.05 C 881.35 879.12 881.48 870.18 881.65 861.26 C 899.95 861.05 918.26 861.29 936.57 861.12 C 936.75 904.09 936.63 947.06 936.63 990.03 C 936.69 1004.54 934.11 1019.31 927.23 1032.21 C 922.76 1039.82 917.08 1046.78 909.69 1051.70 C 893.73 1062.70 873.85 1065.16 854.98 1066.21 C 843.94 1066.66 832.92 1065.97 821.93 1065.11 C 808.85 1063.92 795.88 1061.45 783.32 1057.57 C 783.43 1044.72 783.65 1031.85 784.23 1019.02 C 784.35 1017.24 783.88 1015.59 783.43 1013.93 C 785.51 1015.09 787.66 1016.17 789.77 1017.31 C 807.94 1025.64 828.50 1029.36 848.34 1026.26 C 858.97 1024.42 869.84 1019.04 875.20 1009.27 C 880.24 1000.74 880.10 990.44 880.23 980.86 C 877.96 983.70 875.66 986.53 873.12 989.15 C 862.55 999.48 847.77 1005.15 833.02 1004.84 C 821.06 1005.27 808.81 1002.73 798.59 996.35 C 784.27 987.26 775.37 971.42 771.93 955.10 C 768.89 941.91 769.29 928.21 770.94 914.86 C 773.52 899.20 779.75 883.54 791.41 872.42 M 846.65 900.67 C 842.20 902.15 838.97 905.75 836.80 909.78 C 833.54 916.35 831.98 923.66 832.17 930.99 C 831.93 941.03 834.08 952.12 841.79 959.21 C 842.56 959.78 843.34 960.36 844.13 960.96 C 852.29 965.23 863.22 964.34 870.06 957.98 C 877.47 949.99 880.10 938.61 879.45 927.96 C 878.74 919.59 876.22 910.95 870.44 904.64 C 864.09 899.01 854.50 897.94 846.65 900.67 Z" />
<path fill="#000000" opacity="1.00" d=" M 198.64 866.96 C 213.62 862.00 229.21 858.27 245.08 858.23 C 264.93 856.95 285.37 858.47 303.96 866.03 C 310.23 869.15 316.72 872.27 321.61 877.43 C 330.79 886.48 334.41 899.58 335.27 912.12 C 335.47 935.09 335.14 958.07 335.45 981.04 C 335.71 989.00 335.34 997.01 336.56 1004.91 C 318.27 1004.84 299.96 1005.49 281.67 1004.76 C 281.50 997.70 281.64 990.64 281.17 983.60 C 274.64 993.33 265.41 1001.51 254.15 1005.23 C 253.15 1005.53 252.15 1005.86 251.16 1006.20 C 238.15 1009.56 224.27 1008.86 211.49 1004.87 C 200.92 1001.38 190.60 994.78 185.71 984.44 C 180.69 973.83 180.64 961.49 183.19 950.21 C 185.68 939.41 192.82 929.65 202.86 924.75 C 226.71 912.56 254.60 911.54 280.66 915.25 C 280.82 908.81 278.42 901.81 272.54 898.50 C 263.71 893.36 253.09 892.41 243.07 892.65 C 227.86 892.98 212.77 897.01 199.36 904.19 C 198.92 891.79 198.70 879.38 198.64 866.96 M 250.88 942.84 C 244.99 944.29 238.61 947.60 236.83 953.87 C 235.81 958.58 236.01 964.07 239.41 967.84 L 239.54 968.24 C 248.39 975.85 262.85 975.14 271.13 966.99 C 277.12 960.85 280.68 952.35 280.67 943.75 C 271.11 940.52 260.64 940.50 250.88 942.84 Z" />
<path fill="#000000" opacity="1.00" d=" M 523.69 861.17 C 543.55 861.23 563.40 861.08 583.26 861.25 C 583.20 887.19 583.24 913.12 583.24 939.05 C 583.15 945.49 584.17 952.06 587.10 957.85 C 587.67 958.71 588.24 959.59 588.80 960.48 L 589.00 960.73 C 597.14 968.24 612.09 966.32 617.59 956.57 C 621.33 949.35 622.42 941.03 622.30 933.00 C 622.23 909.07 622.37 885.15 622.23 861.23 C 642.04 861.12 661.85 861.19 681.66 861.20 C 681.67 909.16 681.69 957.13 681.66 1005.10 C 663.26 1005.06 644.87 1005.04 626.48 1005.12 C 626.34 996.67 626.48 988.23 626.40 979.78 C 624.40 983.07 622.39 986.35 620.31 989.58 L 619.97 989.67 C 617.62 992.41 615.08 995.01 612.29 997.32 C 600.19 1006.12 584.69 1009.26 569.95 1008.12 C 558.81 1007.14 547.02 1004.29 538.81 996.19 C 528.37 986.49 524.10 971.88 523.74 957.99 C 523.69 925.72 523.78 893.44 523.69 861.17 Z" />
<path fill="#000000" opacity="1.00" d=" M 699.36 861.13 C 719.28 861.31 739.20 861.01 759.12 861.28 C 758.84 909.23 759.44 957.18 758.76 1005.11 C 738.98 1005.03 719.20 1005.09 699.42 1005.08 C 699.28 957.09 699.40 909.11 699.36 861.13 Z" />
</g>
<g id="#fe0002ff">
<path fill="#fe0002" opacity="1.00" d=" M 489.02 309.26 C 493.92 308.04 499.01 308.66 504.01 308.47 C 513.93 308.64 524.00 307.98 533.74 310.15 C 534.11 310.47 534.85 311.12 535.22 311.44 C 535.98 311.18 537.50 310.67 538.26 310.41 L 538.19 311.69 C 540.49 312.18 542.80 312.69 545.06 313.39 C 545.65 313.42 546.85 313.48 547.44 313.51 L 547.56 314.28 C 550.11 314.70 552.59 315.47 554.99 316.45 C 555.36 316.42 556.10 316.36 556.47 316.33 L 556.55 317.22 C 558.00 317.60 559.44 318.04 560.89 318.51 C 561.50 318.55 562.73 318.62 563.35 318.66 L 563.42 319.88 C 563.75 319.83 564.41 319.74 564.74 319.69 C 566.61 321.20 568.67 322.46 570.84 323.50 C 571.82 323.59 572.82 323.68 573.82 323.79 C 575.21 325.58 576.98 327.00 579.07 327.91 C 586.30 332.91 593.83 337.60 600.05 343.90 C 604.28 347.31 607.69 351.56 611.47 355.45 C 615.73 360.01 618.54 365.76 623.03 370.12 C 623.59 371.43 624.15 372.74 624.77 374.04 C 626.86 376.21 627.42 379.36 628.91 381.92 C 630.08 383.87 631.05 385.95 631.77 388.12 C 632.34 389.04 632.93 389.97 633.53 390.89 C 633.52 391.53 633.50 392.80 633.49 393.44 L 634.73 393.47 C 634.64 393.96 634.45 394.93 634.36 395.42 L 635.67 395.57 C 635.61 396.30 635.49 397.75 635.43 398.47 L 636.34 398.49 C 637.26 401.49 638.17 404.51 638.80 407.60 C 639.15 407.60 639.86 407.60 640.21 407.60 C 640.31 409.17 640.42 410.76 640.55 412.34 C 641.02 414.26 641.42 416.21 641.71 418.17 C 642.55 425.41 643.74 432.65 643.54 439.97 C 643.60 459.12 643.46 478.28 643.60 497.44 C 659.07 497.74 674.56 497.47 690.04 497.56 C 698.08 497.71 706.23 496.99 714.15 498.76 C 720.30 499.57 726.34 501.13 732.52 501.67 L 732.46 502.31 C 733.92 502.55 735.38 502.81 736.85 503.13 C 737.88 503.56 738.92 504.00 739.97 504.44 C 740.20 504.53 740.66 504.70 740.89 504.79 C 742.37 505.27 743.89 505.52 745.43 505.80 L 745.56 506.75 C 746.05 506.61 747.02 506.34 747.50 506.20 L 747.51 507.58 C 748.24 507.53 749.70 507.42 750.44 507.37 L 750.50 508.62 C 750.97 508.56 751.90 508.44 752.37 508.38 L 752.55 509.74 C 753.05 509.61 754.04 509.36 754.53 509.23 L 754.49 510.60 C 755.22 510.55 756.69 510.46 757.42 510.41 L 757.47 511.69 C 757.86 511.65 758.62 511.58 759.01 511.55 C 760.65 512.85 762.40 514.01 764.28 514.96 L 764.60 515.12 C 766.49 515.84 768.26 516.81 769.86 518.07 C 773.85 521.19 778.44 523.48 782.25 526.87 C 786.38 530.00 789.96 533.74 793.80 537.21 C 796.26 540.56 799.68 543.06 801.99 546.54 C 802.22 546.53 802.69 546.52 802.93 546.51 C 806.33 552.26 810.38 557.65 814.48 562.94 C 814.44 563.33 814.37 564.12 814.33 564.51 L 815.66 564.55 C 815.62 564.93 815.52 565.69 815.47 566.06 C 818.08 569.83 819.61 574.18 821.83 578.17 C 822.12 579.26 822.41 580.37 822.69 581.48 L 823.72 581.53 C 823.61 582.02 823.39 582.99 823.28 583.48 L 824.60 583.59 C 824.53 584.33 824.41 585.80 824.35 586.54 L 825.62 586.47 C 825.58 587.21 825.50 588.68 825.47 589.42 L 826.65 589.52 C 826.59 590.26 826.47 591.74 826.41 592.48 L 827.62 592.50 C 827.56 593.29 827.45 594.88 827.40 595.67 C 827.86 595.66 828.78 595.63 829.24 595.61 C 829.30 596.81 829.37 598.02 829.46 599.23 C 830.65 603.07 830.34 607.14 831.18 611.05 C 831.51 612.40 831.86 613.76 832.25 615.11 C 832.78 624.38 832.61 633.67 832.60 642.96 C 832.76 648.86 831.16 654.63 831.49 660.55 L 830.52 660.52 C 830.53 662.18 830.52 663.83 830.55 665.50 L 829.74 665.57 C 829.41 668.25 828.86 670.90 828.36 673.56 L 827.74 673.52 C 827.27 676.38 826.48 679.17 825.55 681.91 C 825.52 682.54 825.47 683.79 825.45 684.41 L 824.79 684.45 C 824.24 686.00 823.56 687.50 822.81 688.98 C 822.43 690.65 822.24 692.54 820.34 693.20 C 820.67 693.72 821.34 694.77 821.68 695.29 C 821.19 695.34 820.20 695.43 819.71 695.47 C 819.20 697.15 818.66 698.82 818.18 700.51 C 817.77 700.48 816.94 700.41 816.52 700.38 C 816.45 701.74 816.38 703.10 816.33 704.48 C 815.98 704.48 815.28 704.47 814.93 704.47 C 812.79 709.03 810.06 713.42 806.65 717.14 C 806.61 717.67 806.52 718.72 806.48 719.24 C 805.45 719.74 804.43 720.23 803.41 720.74 C 803.41 721.43 803.42 722.82 803.42 723.52 C 802.89 723.47 801.84 723.38 801.32 723.34 C 801.37 723.85 801.46 724.88 801.51 725.40 C 800.80 725.47 799.39 725.61 798.68 725.68 C 798.63 726.26 798.54 727.42 798.49 728.00 C 794.15 731.43 790.74 735.87 786.34 739.22 C 784.44 740.68 782.70 742.34 781.01 744.02 C 777.54 746.21 774.32 748.75 770.92 751.04 C 768.90 752.31 766.89 753.58 764.84 754.80 C 763.87 755.23 762.91 755.67 761.96 756.11 C 756.41 758.98 750.76 761.65 744.88 763.76 C 743.00 764.41 741.12 765.04 739.25 765.66 C 739.28 766.06 739.34 766.87 739.38 767.27 C 737.68 767.27 736.00 767.29 734.33 767.30 L 734.27 768.33 C 732.60 768.32 730.94 768.33 729.28 768.34 L 729.29 769.69 C 728.56 769.35 727.11 768.66 726.38 768.32 L 726.40 770.21 C 724.15 770.27 721.91 770.36 719.68 770.51 C 714.46 772.16 708.93 770.97 703.61 771.84 C 699.43 772.61 695.19 772.37 690.97 772.37 C 584.97 772.38 478.96 772.37 372.95 772.38 C 370.22 772.96 369.24 770.20 369.53 768.01 C 369.55 658.00 369.54 547.98 369.54 437.97 C 369.44 432.27 370.25 426.59 371.28 421.01 C 371.48 419.39 371.67 417.77 371.93 416.17 C 372.32 414.66 372.54 413.11 372.77 411.58 L 373.32 411.50 C 373.84 408.21 374.57 404.95 374.84 401.63 C 375.26 401.60 376.10 401.55 376.52 401.52 C 376.53 400.20 376.55 398.89 376.56 397.58 L 377.72 397.60 C 377.67 396.86 377.57 395.38 377.51 394.63 L 378.59 394.68 C 379.03 393.00 379.45 391.32 379.84 389.64 L 380.65 389.78 C 381.04 388.39 381.43 387.01 381.78 385.63 L 382.71 385.49 C 382.63 385.02 382.46 384.06 382.37 383.59 L 383.75 383.56 C 383.72 383.18 383.65 382.42 383.62 382.05 C 384.97 380.14 386.24 378.17 387.45 376.18 C 387.53 375.68 387.69 374.69 387.77 374.19 C 389.53 372.41 390.96 370.33 392.11 368.11 C 396.60 361.42 401.69 355.07 407.48 349.44 C 408.57 348.34 409.37 346.99 410.17 345.68 C 410.41 345.67 410.90 345.65 411.15 345.64 C 416.49 340.05 422.88 335.62 428.99 330.92 C 431.79 329.32 434.50 327.58 437.37 326.10 L 437.64 325.86 C 439.44 324.92 441.22 323.93 442.96 322.87 C 445.99 321.48 449.04 320.14 451.98 318.56 C 452.35 318.57 453.08 318.58 453.45 318.58 L 453.57 317.37 C 454.29 317.42 455.73 317.53 456.46 317.59 L 456.49 316.77 C 457.70 316.40 458.90 316.01 460.11 315.60 C 460.48 315.64 461.24 315.70 461.61 315.73 C 461.64 315.26 461.70 314.32 461.73 313.85 C 463.23 313.77 464.74 313.69 466.25 313.63 C 467.27 313.19 468.29 312.76 469.31 312.33 C 471.67 311.79 474.09 311.51 476.52 311.46 L 476.61 310.64 C 478.39 310.56 480.19 310.47 481.98 310.33 C 484.27 309.65 486.65 309.44 489.02 309.26 Z" />
</g>
</svg>
